name Walk7.mot
datacolumns 19
datarows 25
range 1.53000000 1.65000000
endheader

                time	   L_ground_force_vx	   L_ground_force_vy	   L_ground_force_vz	   L_ground_force_px	   L_ground_force_py	   L_ground_force_pz	   R_ground_force_vx	   R_ground_force_vy	   R_ground_force_vz	   R_ground_force_px	   R_ground_force_py	   R_ground_force_pz	   L_ground_torque_x	   L_ground_torque_y	   L_ground_torque_z	   R_ground_torque_x	   R_ground_torque_y	   R_ground_torque_z	
          1.53000000	         24.66863266	        631.46999319	         37.85544555	         -0.34928442	          0.00000000	         -0.04765562	         -0.06116735	          0.34711744	          0.00064257	          0.00014709	          0.00000000	          0.00010603	          0.00000000	         -1.95421357	          0.00000000	          0.00000000	          0.00000986	          0.00000000	
          1.53500000	         24.85536991	        637.18343934	         38.72430962	         -0.34528786	          0.00000000	         -0.04815219	         -0.07339487	          0.41614105	          0.00096927	          0.00015445	          0.00000000	          0.00011030	          0.00000000	         -2.00323738	          0.00000000	          0.00000000	          0.00004543	          0.00000000	
          1.54000000	         24.97452084	        643.20301167	         39.66676693	         -0.34121097	          0.00000000	         -0.04865725	         -0.08341057	          0.47245319	          0.00135918	          0.00014687	          0.00000000	          0.00010336	          0.00000000	         -2.04097636	          0.00000000	          0.00000000	          0.00009530	          0.00000000	
          1.54500000	         25.07655562	        649.53601218	         40.68400399	         -0.33708600	          0.00000000	         -0.04916542	         -0.08874198	          0.50199844	          0.00179957	          0.00011694	          0.00000000	          0.00007979	          0.00000000	         -2.06643359	          0.00000000	          0.00000000	          0.00016130	          0.00000000	
          1.55000000	         25.22516286	        656.19709622	         41.77003260	         -0.33295278	          0.00000000	         -0.04966996	         -0.08611130	          0.48616021	          0.00226437	          0.00005585	          0.00000000	          0.00003320	          0.00000000	         -2.07922244	          0.00000000	          0.00000000	          0.00024433	          0.00000000	
          1.55500000	         25.49315580	        663.21574848	         42.91203717	         -0.32885695	          0.00000000	         -0.05016376	         -0.07138912	          0.40150519	          0.00270990	         -0.00004631	          0.00000000	         -0.00004356	          0.00000000	         -2.07975724	          0.00000000	          0.00000000	          0.00034368	          0.00000000	
          1.56000000	         25.95799277	        670.63721755	         44.09110975	         -0.32484634	          0.00000000	         -0.05063927	         -0.03962738	          0.21997900	          0.00307046	         -0.00019990	          0.00000000	         -0.00015788	          0.00000000	         -2.06909373	          0.00000000	          0.00000000	          0.00045621	          0.00000000	
          1.56500000	         26.69606882	        678.51558137	         45.28380609	         -0.32096833	          0.00000000	         -0.05108832	          0.01478841	         -0.09021884	          0.00325403	         -0.00041475	          0.00000000	         -0.00031667	          0.00000000	         -2.04884763	          0.00000000	          0.00000000	          0.00057543	          0.00000000	
          1.57000000	         27.77667699	        686.90534195	         46.46335241	         -0.31726849	          0.00000000	         -0.05150265	          0.09781945	         -0.56280854	          0.00313897	         -0.00069863	          0.00000000	         -0.00052524	          0.00000000	         -2.02110982	          0.00000000	          0.00000000	          0.00069036	          0.00000000	
          1.57500000	         29.25748052	        695.85238088	         47.60018160	         -0.31378881	          0.00000000	         -0.05187491	          0.21523249	         -1.23034524	          0.00257243	         -0.00105515	          0.00000000	         -0.00078570	          0.00000000	         -1.98806172	          0.00000000	          0.00000000	          0.00078445	          0.00000000	
          1.58000000	         31.18189401	        705.38013244	         48.66334814	         -0.31056467	          0.00000000	         -0.05220009	          0.37177980	         -2.11955231	          0.00137172	         -0.00148097	          0.00000000	         -0.00109496	          0.00000000	         -1.95175045	          0.00000000	          0.00000000	          0.00083443	          0.00000000	
          1.58500000	         33.57746849	        715.47411952	         49.62194523	         -0.30762203	          0.00000000	         -0.05247568	          0.57004560	         -3.24476345	         -0.00066981	         -0.00196234	          0.00000000	         -0.00144217	          0.00000000	         -1.91423641	          0.00000000	          0.00000000	          0.00080945	          0.00000000	
          1.59000000	         36.45472781	        726.07442157	         50.44574081	         -0.30497634	          0.00000000	         -0.05269923	          0.80891465	         -4.59922443	         -0.00377073	         -0.00247097	          0.00000000	         -0.00180575	          0.00000000	         -1.87787152	          0.00000000	          0.00000000	          0.00067067	          0.00000000	
          1.59500000	         39.80609616	        737.06971539	         51.10470040	         -0.30263203	          0.00000000	         -0.05286839	          1.08164029	         -6.14412988	         -0.00814120	         -0.00295938	          0.00000000	         -0.00215000	          0.00000000	         -1.84546106	          0.00000000	          0.00000000	          0.00037155	          0.00000000	
          1.60000000	         43.60459034	        748.29306163	         51.56777569	         -0.30058122	          0.00000000	         -0.05298344	          1.37352651	         -7.79548035	         -0.01395239	         -0.00335601	          0.00000000	         -0.00242166	          0.00000000	         -1.82056841	          0.00000000	          0.00000000	         -0.00014071	          0.00000000	
          1.60500000	         47.80324156	        759.52413199	         51.80211672	         -0.29880318	          0.00000000	         -0.05304838	          1.65929357	         -9.40916113	         -0.02129351	         -0.00356062	          0.00000000	         -0.00254662	          0.00000000	         -1.80805749	          0.00000000	          0.00000000	         -0.00092217	          0.00000000	
          1.61000000	         52.33288751	        770.50012744	         51.78395090	         -0.29726716	          0.00000000	         -0.05306874	          1.90027543	        -10.76508843	         -0.03011502	         -0.00344057	          0.00000000	         -0.00242742	          0.00000000	         -1.81311681	          0.00000000	          0.00000000	         -0.00202703	          0.00000000	
          1.61500000	         57.11395387	        780.93511611	         51.51524227	         -0.29593693	          0.00000000	         -0.05304941	          2.04170034	        -11.55185627	         -0.04015708	         -0.00282904	          0.00000000	         -0.00194217	          0.00000000	         -1.83873645	          0.00000000	          0.00000000	         -0.00349994	          0.00000000	
          1.62000000	         62.08297012	        790.53750178	         51.01715116	         -0.29477497	          0.00000000	         -0.05299410	          2.01043649	        -11.35405780	         -0.05086397	         -0.00152653	          0.00000000	         -0.00094595	          0.00000000	         -1.88485318	          0.00000000	          0.00000000	         -0.00536512	          0.00000000	
          1.62500000	         67.19512325	        799.02542138	         50.31975627	         -0.29374500	          0.00000000	         -0.05290491	          1.71374100	         -9.64534074	         -0.06128711	          0.00069284	          0.00000000	          0.00072419	          0.00000000	         -1.94869324	          0.00000000	          0.00000000	         -0.00761198	          0.00000000	
          1.63000000	         72.41265546	        806.13805842	         49.45693404	         -0.29281352	          0.00000000	         -0.05278302	          1.03972769	         -5.79126067	         -0.06998234	          0.00406824	          0.00000000	          0.00323926	          0.00000000	         -2.02547049	          0.00000000	          0.00000000	         -0.01017691	          0.00000000	
          1.63500000	         77.70080411	        811.63994876	         48.45986193	         -0.29195170	          0.00000000	         -0.05262875	         -0.13954261	          0.93293865	         -0.07491070	          0.00883003	          0.00000000	          0.00676172	          0.00000000	         -2.10935130	          0.00000000	          0.00000000	         -0.01292153	          0.00000000	
          1.64000000	         83.03060989	        815.31556080	         47.35167151	         -0.29113676	          0.00000000	         -0.05244187	         -1.96126328	         11.30346111	         -0.07335730	          0.01516649	          0.00000000	          0.01142066	          0.00000000	         -2.19442988	          0.00000000	          0.00000000	         -0.01560783	          0.00000000	
          1.64500000	         88.37896863	        816.96383308	         46.14383724	         -0.29035287	          0.00000000	         -0.05222271	         -4.56013868	         26.08100927	         -0.06188794	          0.02317697	          0.00000000	          0.01727724	          0.00000000	         -2.27509975	          0.00000000	          0.00000000	         -0.01787191	          0.00000000	
          1.65000000	         93.72200715	        816.39647750	         44.83418547	         -0.28959088	          0.00000000	         -0.05197236	         -8.05037910	         45.90829722	         -0.03637034	          0.03280999	          0.00000000	          0.02427909	          0.00000000	         -2.34634503	          0.00000000	          0.00000000	         -0.01919837	          0.00000000	
